<svg xmlns="http://www.w3.org/2000/svg" xmlns:xlink="http://www.w3.org/1999/xlink" width="500" zoomAndPan="magnify" viewBox="0 0 375 374.999991" height="500" preserveAspectRatio="xMidYMid meet" version="1.0"><rect x="-37.5" width="450" fill="#ffffff" y="-37.499999" height="449.999989" fill-opacity="1"/><rect x="-37.5" width="450" fill="#ffffff" y="-37.499999" height="449.999989" fill-opacity="1"/><path fill="#535ff6" d="M 64.144531 71.296875 L 135.929688 215.683594 C 157.066406 196.777344 175.667969 163.609375 174.628906 136.433594 L 152.910156 93.601562 C 152.128906 92.0625 150.800781 90.875 149.183594 90.277344 L 72.675781 61.816406 C 66.851562 59.648438 61.375 65.730469 64.144531 71.296875 Z M 192.96875 150.203125 C 193.152344 149.929688 193.324219 149.640625 193.472656 149.332031 L 220.726562 94.097656 C 221.5 92.53125 222.847656 91.316406 224.488281 90.703125 L 302.402344 61.722656 C 308.195312 59.5625 313.660156 65.570312 310.96875 71.132812 L 195.3125 310.273438 C 192.828125 315.40625 185.53125 315.445312 182.992188 310.34375 L 138.386719 220.613281 C 162.84375 203.128906 182 178.695312 192.96875 150.203125 " fill-opacity="1" fill-rule="nonzero"/></svg>