<svg xmlns="http://www.w3.org/2000/svg" xmlns:xlink="http://www.w3.org/1999/xlink" x="0px" y="0px" viewBox="0 0 512.001 512.001" fill="#fff" style="enable-background:new 0 0 512.001 512.001;" xml:space="preserve"><g><g><path d="M465.565,92.742h-49.149v-2.83c0-8.284-6.716-15-15-15s-15,6.716-15,15v2.83h-66.944v-2.83c0-8.284-6.716-15-15-15 s-15,6.716-15,15v2.83h-66.943v-2.83c0-8.284-6.716-15-15-15s-15,6.716-15,15v2.83h-66.944v-2.83c0-8.284-6.716-15-15-15 s-15,6.716-15,15v2.83h-49.15C20.83,92.742,0,113.572,0,139.176v251.478c0,25.604,20.83,46.435,46.435,46.435h419.131 c25.604,0,46.435-20.831,46.435-46.435V139.176C512,113.572,491.17,92.742,465.565,92.742z M30,139.176 c0-9.063,7.372-16.435,16.435-16.435h49.149v2.83c0,8.284,6.716,15,15,15s15-6.716,15-15v-2.83h66.944v2.83 c0,8.284,6.716,15,15,15s15-6.716,15-15v-2.83h66.943v2.83c0,8.284,6.716,15,15,15s15-6.716,15-15v-2.83h66.944v2.83 c0,8.284,6.716,15,15,15s15-6.716,15-15v-2.83h49.149c9.063,0,16.435,7.373,16.435,16.435v42.436H30V139.176z M482,390.654 c0,9.063-7.372,16.436-16.435,16.436H46.435c-9.063,0-16.435-7.373-16.435-16.435V211.611h452V390.654z"/></g></g><g><g><path d="M128.235,260.196H87.021c-8.284,0-15,6.716-15,15s6.716,15,15,15h41.214c8.284,0,15-6.716,15-15 S136.52,260.196,128.235,260.196z"/></g></g><g><g><path d="M227.15,260.196h-41.215c-8.284,0-15,6.716-15,15s6.716,15,15,15h41.215c8.284,0,15-6.716,15-15 S235.435,260.196,227.15,260.196z"/></g></g><g><g><path d="M326.064,260.196H284.85c-8.284,0-15,6.716-15,15s6.716,15,15,15h41.215c8.284,0,15-6.716,15-15 S334.349,260.196,326.064,260.196z"/></g></g><g><g><path d="M424.979,260.196h-41.214c-8.284,0-15,6.716-15,15s6.716,15,15,15h41.214c8.284,0,15-6.716,15-15 S433.263,260.196,424.979,260.196z"/></g></g><g><g><path d="M128.235,328.502H87.021c-8.284,0-15,6.716-15,15s6.716,15,15,15h41.214c8.284,0,15-6.716,15-15 S136.52,328.502,128.235,328.502z"/></g></g><g><g><path d="M227.15,328.502h-41.215c-8.284,0-15,6.716-15,15s6.716,15,15,15h41.215c8.284,0,15-6.716,15-15 S235.435,328.502,227.15,328.502z"/></g></g><g><g><path d="M326.064,328.502H284.85c-8.284,0-15,6.716-15,15s6.716,15,15,15h41.215c8.284,0,15-6.716,15-15 S334.349,328.502,326.064,328.502z"/></g></g><g><g><path d="M424.979,328.502h-41.214c-8.284,0-15,6.716-15,15s6.716,15,15,15h41.214c8.284,0,15-6.716,15-15 S433.263,328.502,424.979,328.502z"/></g></g></svg>